<svg id="Group_7090" data-name="Group 7090" xmlns="http://www.w3.org/2000/svg" width="21" height="21" viewBox="0 0 21 21">
  <rect id="Rectangle_2118" data-name="Rectangle 2118" width="21" height="21" fill="#fff" opacity="0"/>
  <path id="Icon_ionic-ios-call" data-name="Icon ionic-ios-call" d="M20.352,17.291a13.719,13.719,0,0,0-2.866-1.918c-.859-.412-1.174-.4-1.782.034-.506.366-.833.706-1.416.578a8.446,8.446,0,0,1-2.845-2.1,8.386,8.386,0,0,1-2.1-2.845c-.123-.587.217-.91.578-1.416.438-.608.451-.923.034-1.782A13.448,13.448,0,0,0,8.034,4.973c-.625-.625-.765-.489-1.11-.366a6.315,6.315,0,0,0-1.016.54,3.066,3.066,0,0,0-1.22,1.288c-.242.523-.523,1.5.906,4.039A22.539,22.539,0,0,0,9.556,15.76h0l0,0,0,0h0a22.627,22.627,0,0,0,5.285,3.963c2.543,1.429,3.516,1.148,4.039.906a3.013,3.013,0,0,0,1.288-1.22,6.315,6.315,0,0,0,.54-1.016C20.841,18.056,20.981,17.916,20.352,17.291Z" transform="translate(-2.157 -2.169)" fill="#fff"/>
</svg>
