<svg xmlns="http://www.w3.org/2000/svg" width="28" height="28" viewBox="0 0 28 28">
  <g id="Group_14169" data-name="Group 14169" transform="translate(-93 -297)">
    <rect id="Rectangle_36" data-name="Rectangle 36" width="28" height="28" transform="translate(93 297)" fill="#fff" opacity="0"/>
    <path id="Icon_ionic-ios-settings" data-name="Icon ionic-ios-settings" d="M22.847,14.5A2.573,2.573,0,0,1,24.5,12.1a10.2,10.2,0,0,0-1.234-2.973,2.608,2.608,0,0,1-1.047.224,2.567,2.567,0,0,1-2.349-3.613A10.171,10.171,0,0,0,16.9,4.5a2.571,2.571,0,0,1-4.8,0A10.2,10.2,0,0,0,9.124,5.734,2.567,2.567,0,0,1,6.776,9.347a2.523,2.523,0,0,1-1.047-.224A10.421,10.421,0,0,0,4.5,12.1a2.572,2.572,0,0,1,.005,4.8,10.2,10.2,0,0,0,1.234,2.973,2.568,2.568,0,0,1,3.39,3.389A10.261,10.261,0,0,0,12.1,24.5a2.567,2.567,0,0,1,4.791,0,10.2,10.2,0,0,0,2.974-1.234,2.571,2.571,0,0,1,3.39-3.389A10.255,10.255,0,0,0,24.492,16.9,2.585,2.585,0,0,1,22.847,14.5Zm-8.3,4.16a4.165,4.165,0,1,1,4.166-4.165A4.164,4.164,0,0,1,14.546,18.656Z" transform="translate(92.501 296.501)" fill="#8a8c99"/>
  </g>
</svg>
